<svg data-v-423bf9ae="" xmlns="http://www.w3.org/2000/svg" viewBox="0 0 39.362668355305985 60" class="icon"><!----><!----><!----><!----><g data-v-423bf9ae="" id="e55aaa72-aeb7-4cea-8e06-38d4d1682720" transform="matrix(0.6666666666666666,0,0,0.6666666666666666,-13.652001063028969,-3.3333333333333286)" stroke="none" fill="#4BBA5B"><path d="M52.072 74.849l-6.513-3.633 3.777 4.211-2.563 16.86L38.753 95h11.886l-1.218-2.713z"></path><path d="M65.918 33.45H44.691L33.1 5.194l-2.223 1.431L28.371 5l-1.117 2.579H24.5v4.076l-4.022 2.835h4.07v5.306s-.207 2.518 2.294 2.518c1.807 0 2.326-1.236 2.326-1.236v32.19L43.993 69.5h11.108l6.025 6.599-2.461 16.188L50.646 95h11.886l-1.218-2.713L64.775 69.5l14.747-16.232V22.279L65.918 33.45z"></path></g><!----></svg>